<svg width="570" height="169" viewBox="0 0 570 169" fill="none" xmlns="http://www.w3.org/2000/svg">
<path d="M58.23 115.9C47.52 115.9 39.87 110.14 37.71 101.05L49.77 97.09C50.76 101.32 53.82 104.47 58.05 104.47C63.09 104.47 65.16 100.69 65.16 96.1V49.3H77.4V95.02C77.4 108.34 70.56 115.9 58.23 115.9Z" fill="#205781"/>
<path d="M121.588 115L104.218 83.41L97.1079 92.23V115H84.8679V49.3H97.1079V76.21L118.798 49.3H133.648L112.858 74.86L135.538 115H121.588Z" fill="#4F959D"/>
<path d="M201.71 115.9C193.79 115.9 188.12 112.3 185.33 106.63L190.01 103.66C192.08 108.07 195.86 111.13 201.62 111.13C208.82 111.13 213.14 106.09 213.14 98.08V49.3H218.36V97.99C218.36 109.15 212.24 115.9 201.71 115.9ZM274.753 115L250.993 79.27L236.773 95.56V115H231.643V49.3H236.773V88.63L271.153 49.3H277.543L254.683 75.67L280.783 115H274.753ZM303.158 115L282.548 62.35H288.218L305.858 108.07L323.498 62.35H328.988L308.378 115H303.158ZM363.645 116.08C348.525 116.08 336.285 104.11 336.285 88.72C336.285 73.33 348.525 61.27 363.645 61.27C378.765 61.27 391.005 73.33 391.005 88.72C391.005 104.11 378.765 116.08 363.645 116.08ZM363.645 111.31C375.975 111.31 385.695 101.32 385.695 88.72C385.695 76.12 375.975 66.04 363.645 66.04C351.135 66.04 341.505 76.12 341.505 88.72C341.505 101.32 351.135 111.31 363.645 111.31ZM429.567 116.08C413.997 116.08 402.027 103.84 402.027 88.72C402.027 73.24 414.177 61.27 429.477 61.27C440.907 61.27 450.537 67.84 454.407 77.47L449.637 79.45C446.127 71.17 438.837 66.04 429.477 66.04C416.877 66.04 407.247 76.12 407.247 88.72C407.247 101.32 416.967 111.31 429.657 111.31C439.377 111.31 446.487 105.64 449.817 97.45L454.677 99.52C450.537 109.24 441.627 116.08 429.567 116.08ZM491.961 116.08C476.481 116.08 464.781 103.75 464.781 88.72C464.781 73.6 476.481 61.27 491.961 61.27C500.601 61.27 509.871 66.04 514.011 74.5V62.35H519.051V115H514.011V102.94C509.871 111.4 500.601 116.08 491.961 116.08ZM492.141 111.31C504.741 111.31 514.551 101.32 514.551 88.72C514.551 76.21 504.741 66.04 492.141 66.04C479.811 66.04 470.001 76.12 470.001 88.72C470.001 101.32 479.811 111.31 492.141 111.31Z" fill="white"/>
</svg>
