<svg width="1346" height="199" viewBox="0 0 1346 199" fill="none" xmlns="http://www.w3.org/2000/svg">
<g clip-path="url(#clip0_697_63)">
<path d="M76 4.13575C76 1.92661 77.7909 0.135742 80 0.135742H90C98.8366 0.135742 106 7.29919 106 16.1357V116.136C106 118.345 104.209 120.136 102 120.136H80C77.7909 120.136 76 118.345 76 116.136V4.13575Z" fill="#797979"/>
<path d="M118 111.136H145.249C146.689 111.136 147.785 112.429 147.548 113.849V113.849C147.516 114.039 147.508 114.233 147.524 114.426L147.639 115.804C147.833 118.136 145.993 120.136 143.653 120.136H122C119.791 120.136 118 118.345 118 116.136V111.136Z" fill="#797979"/>
<path d="M223 111.136H195.751C194.311 111.136 193.215 112.429 193.452 113.849V113.849C193.484 114.039 193.492 114.233 193.476 114.426L193.361 115.804C193.167 118.136 195.007 120.136 197.347 120.136H219C221.209 120.136 223 118.345 223 116.136V111.136Z" fill="#797979"/>
<path d="M0 0.135742H26C28.2091 0.135742 30 1.9266 30 4.13574V116.136C30 118.345 28.2091 120.136 26 120.136H4C1.79086 120.136 0 118.345 0 116.136V0.135742Z" fill="#797979"/>
<path d="M312 4.13575C312 1.92661 313.791 0.135742 316 0.135742H326C334.837 0.135742 342 7.29919 342 16.1357V116.136C342 118.345 340.209 120.136 338 120.136H316C313.791 120.136 312 118.345 312 116.136V4.13575Z" fill="#797979"/>
<path d="M236 16.1357C236 7.29919 243.163 0.135742 252 0.135742H262C264.209 0.135742 266 1.9266 266 4.13574V116.136C266 118.345 264.209 120.136 262 120.136H240C237.791 120.136 236 118.345 236 116.136V16.1357Z" fill="#797979"/>
<path d="M460 104.136C460 112.972 452.837 120.136 444 120.136L370 120.136C361.163 120.136 354 112.972 354 104.136V94.1357C354 91.9266 355.791 90.1357 358 90.1357L456 90.1357C458.209 90.1357 460 91.9266 460 94.1357V104.136Z" fill="#797979"/>
<path d="M384 116.136C384 118.345 382.209 120.136 380 120.136H370C361.163 120.136 354 112.972 354 104.136V4.13575C354 1.92661 355.791 0.135742 358 0.135742H380C382.209 0.135742 384 1.9266 384 4.13574V116.136Z" fill="#797979"/>
<path d="M460 120.136H434C431.791 120.136 430 118.345 430 116.136V4.13575C430 1.92661 431.791 0.135742 434 0.135742H456C458.209 0.135742 460 1.9266 460 4.13574V120.136Z" fill="#797979"/>
<path d="M0 12.0679C0 5.44045 5.37258 0.0678711 12 0.0678711H90C98.8366 0.0678711 106 7.23132 106 16.0679V26.0679C106 28.277 104.209 30.0679 102 30.0679H4C1.79086 30.0679 0 28.277 0 26.0679V12.0679Z" fill="#797979"/>
<path d="M236 16.0679C236 7.23132 243.163 0.0678711 252 0.0678711H326C334.837 0.0678711 342 7.23132 342 16.0679V26.0679C342 28.277 340.209 30.0679 338 30.0679H240C237.791 30.0679 236 28.277 236 26.0679V16.0679Z" fill="#797979"/>
<path d="M545.97 120.075H529.23V-0.0500059H551.55V47.38H602.235V-0.0500059H624.555V100.545L618.975 120.075H602.235V65.98H551.55V100.545L545.97 120.075ZM740.351 93.105C740.351 94.965 739.266 97.3933 737.096 100.39C735.029 103.387 732.601 106.332 729.811 109.225C726.918 112.222 723.973 114.753 720.976 116.82C717.979 118.99 715.603 120.075 713.846 120.075H671.686C669.826 120.075 667.398 118.99 664.401 116.82C661.404 114.753 658.511 112.222 655.721 109.225C652.828 106.332 650.296 103.387 648.126 100.39C646.059 97.3933 645.026 94.965 645.026 93.105V26.765C645.026 25.6283 645.491 24.1817 646.421 22.425C647.454 20.565 648.746 18.6017 650.296 16.535C651.846 14.5717 653.603 12.6083 655.566 10.645C657.529 8.68166 659.544 6.87333 661.611 5.21999C663.574 3.66999 665.434 2.42999 667.191 1.49999C668.948 0.46666 670.446 -0.0500059 671.686 -0.0500059H713.846C714.983 -0.0500059 716.429 0.46666 718.186 1.49999C719.943 2.42999 721.803 3.66999 723.766 5.21999C725.729 6.87333 727.693 8.68166 729.656 10.645C731.619 12.6083 733.428 14.5717 735.081 16.535C736.631 18.6017 737.871 20.565 738.801 22.425C739.834 24.1817 740.351 25.6283 740.351 26.765V93.105ZM718.031 30.02C718.031 29.1933 717.618 28.16 716.791 26.92C715.964 25.5767 714.983 24.285 713.846 23.045C712.709 21.9083 711.521 20.9267 710.281 20.1C709.041 19.17 708.008 18.6533 707.181 18.55H678.196C677.369 18.6533 676.336 19.17 675.096 20.1C673.856 20.9267 672.668 21.9083 671.531 23.045C670.394 24.285 669.413 25.5767 668.586 26.92C667.759 28.16 667.346 29.1933 667.346 30.02V89.85C667.346 90.6767 667.759 91.7617 668.586 93.105C669.413 94.345 670.394 95.585 671.531 96.825C672.668 98.065 673.856 99.15 675.096 100.08C676.336 100.907 677.369 101.372 678.196 101.475H707.181C708.008 101.372 709.041 100.907 710.281 100.08C711.521 99.15 712.709 98.065 713.846 96.825C714.983 95.585 715.964 94.345 716.791 93.105C717.618 91.7617 718.031 90.6767 718.031 89.85V30.02ZM844.367 120.075H760.822V-0.0500059H783.142V101.475H844.367V120.075ZM859.362 -0.0500059H928.182C929.319 -0.0500059 930.765 0.46666 932.522 1.49999C934.279 2.42999 936.139 3.66999 938.102 5.21999C940.065 6.87333 942.029 8.68166 943.992 10.645C945.955 12.6083 947.764 14.5717 949.417 16.535C950.967 18.6017 952.207 20.565 953.137 22.425C954.17 24.1817 954.687 25.6283 954.687 26.765V93.105C954.687 94.965 953.602 97.3933 951.432 100.39C949.365 103.387 946.937 106.332 944.147 109.225C941.254 112.222 938.309 114.753 935.312 116.82C932.315 118.99 929.939 120.075 928.182 120.075H859.362V-0.0500059ZM881.682 18.55V101.475H921.517C922.344 101.372 923.377 100.907 924.617 100.08C925.857 99.15 927.045 98.065 928.182 96.825C929.319 95.585 930.3 94.345 931.127 93.105C931.954 91.7617 932.367 90.6767 932.367 89.85V30.02C932.367 29.1933 931.954 28.16 931.127 26.92C930.3 25.5767 929.319 24.285 928.182 23.045C927.045 21.9083 925.857 20.9267 924.617 20.1C923.377 19.17 922.344 18.6533 921.517 18.55H881.682ZM993.448 120.075H976.708V-0.0500059H999.028V100.545L993.448 120.075ZM1059.15 -0.0500059L1098.83 100.39V-0.0500059H1121.46V120.075H1083.18L1043.34 19.325V100.545L1037.76 120.075H1021.02V-0.0500059H1059.15ZM1237.29 51.565V93.105C1237.29 94.965 1236.2 97.3933 1234.03 100.39C1231.97 103.387 1229.54 106.332 1226.75 109.225C1223.86 112.222 1220.91 114.753 1217.91 116.82C1214.92 118.99 1212.54 120.075 1210.78 120.075H1168.62C1166.76 120.075 1164.34 118.99 1161.34 116.82C1158.34 114.753 1155.45 112.222 1152.66 109.225C1149.77 106.332 1147.23 103.387 1145.06 100.39C1143 97.3933 1141.96 94.965 1141.96 93.105V26.765C1141.96 25.6283 1142.43 24.1817 1143.36 22.425C1144.39 20.565 1145.68 18.6017 1147.23 16.535C1148.78 14.5717 1150.54 12.6083 1152.5 10.645C1154.47 8.68166 1156.48 6.87333 1158.55 5.21999C1160.51 3.66999 1162.37 2.42999 1164.13 1.49999C1165.89 0.46666 1167.38 -0.0500059 1168.62 -0.0500059H1230.47V18.55H1175.13C1174.31 18.6533 1173.27 19.17 1172.03 20.1C1170.79 20.9267 1169.61 21.9083 1168.47 23.045C1167.33 24.285 1166.35 25.5767 1165.52 26.92C1164.7 28.16 1164.28 29.1933 1164.28 30.02V89.85C1164.28 90.6767 1164.7 91.7617 1165.52 93.105C1166.35 94.345 1167.33 95.585 1168.47 96.825C1169.61 98.065 1170.79 99.15 1172.03 100.08C1173.27 100.907 1174.31 101.372 1175.13 101.475H1204.12C1204.95 101.372 1205.98 100.907 1207.22 100.08C1208.46 99.15 1209.65 98.065 1210.78 96.825C1211.92 95.585 1212.9 94.345 1213.73 93.105C1214.56 91.7617 1214.97 90.6767 1214.97 89.85V70.165H1189.55V51.565H1237.29ZM1253.18 101.475H1311.46C1312.39 101.475 1313.47 101.113 1314.71 100.39C1316.06 99.6667 1317.35 98.7367 1318.59 97.6C1319.83 96.5667 1320.86 95.43 1321.69 94.19C1322.62 92.95 1323.08 91.8133 1323.08 90.78V76.21C1323.08 75.28 1322.62 74.195 1321.69 72.955C1320.86 71.715 1319.83 70.5267 1318.59 69.39C1317.35 68.3567 1316.06 67.4783 1314.71 66.755C1313.47 66.0317 1312.39 65.67 1311.46 65.67H1277.82C1275.96 65.67 1273.54 64.74 1270.54 62.88C1267.65 60.9167 1264.8 58.5917 1262.01 55.905C1259.12 53.3217 1256.64 50.635 1254.57 47.845C1252.51 45.055 1251.47 42.73 1251.47 40.87V25.215C1251.47 23.4583 1252.51 21.185 1254.57 18.395C1256.64 15.5017 1259.12 12.66 1262.01 9.87C1264.8 7.18333 1267.65 4.85833 1270.54 2.89499C1273.54 0.93166 1275.96 -0.0500059 1277.82 -0.0500059H1341.68V17.775H1285.42C1284.49 17.775 1283.35 18.1367 1282.01 18.86C1280.77 19.5833 1279.53 20.4617 1278.29 21.495C1277.05 22.6317 1275.96 23.82 1275.03 25.06C1274.21 26.3 1273.79 27.385 1273.79 28.315V36.84C1273.79 37.8733 1274.21 39.01 1275.03 40.25C1275.96 41.49 1277.05 42.6783 1278.29 43.815C1279.53 44.9517 1280.77 45.9333 1282.01 46.76C1283.35 47.4833 1284.49 47.845 1285.42 47.845H1319.05C1320.91 47.845 1323.29 48.8267 1326.18 50.79C1329.18 52.7533 1332.13 55.0783 1335.02 57.765C1337.81 60.555 1340.24 63.3967 1342.3 66.29C1344.37 69.08 1345.4 71.3533 1345.4 73.11V94.81C1345.4 96.67 1344.37 99.0467 1342.3 101.94C1340.24 104.73 1337.81 107.468 1335.02 110.155C1332.13 112.842 1329.18 115.167 1326.18 117.13C1323.29 119.093 1320.91 120.075 1319.05 120.075H1253.18V101.475Z" fill="#797979"/>
<path d="M150.267 5.7927C151.297 2.43108 154.401 0.135705 157.917 0.135705L162.264 0.135705C173.05 0.135705 180.747 10.5909 177.541 20.89L147.713 116.739C147.047 118.878 144.754 120.054 142.629 119.345L118 111.136L150.267 5.7927Z" fill="#797979"/>
<path d="M195.498 21.3494C191.636 8.74337 179.997 0.135705 166.813 0.135705L162.434 0.135705C159.737 0.135705 157.813 2.74951 158.615 5.32429L193.287 116.739C193.953 118.878 196.246 120.054 198.371 119.345L223 111.136L195.498 21.3494Z" fill="#797979"/>
</g>
<path d="M24.16 187.6H9.48C9.02667 187.6 8.41333 187.32 7.64 186.76C6.86667 186.227 6.12 185.573 5.4 184.8C4.65333 184.053 4 183.293 3.44 182.52C2.90667 181.747 2.64 181.12 2.64 180.64V163.52C2.64 163.227 2.76 162.853 3 162.4C3.26667 161.92 3.61333 161.413 4.04 160.88C4.44 160.373 4.89333 159.867 5.4 159.36C5.90667 158.853 6.41333 158.387 6.92 157.96C7.42667 157.56 7.90667 157.24 8.36 157C8.81333 156.733 9.18667 156.6 9.48 156.6H23.76V161.4H11.2C10.9867 161.427 10.72 161.56 10.4 161.8C10.08 162.013 9.77333 162.267 9.48 162.56C9.18667 162.88 8.93333 163.213 8.72 163.56C8.50667 163.88 8.4 164.147 8.4 164.36V179.8C8.4 180.013 8.50667 180.293 8.72 180.64C8.93333 180.96 9.18667 181.28 9.48 181.6C9.77333 181.92 10.08 182.2 10.4 182.44C10.72 182.653 10.9867 182.773 11.2 182.8H24.16V187.6ZM35.4063 187.6C34.9263 187.6 34.2996 187.347 33.5263 186.84C32.7796 186.333 32.0463 185.733 31.3263 185.04C30.5796 184.347 29.9396 183.64 29.4063 182.92C28.8729 182.173 28.6063 181.56 28.6063 181.08V170.32C28.6063 169.867 28.8729 169.28 29.4063 168.56C29.9396 167.813 30.5796 167.08 31.3263 166.36C32.0463 165.667 32.7796 165.067 33.5263 164.56C34.2996 164.053 34.9263 163.8 35.4063 163.8H44.6463C45.1263 163.8 45.7396 164.053 46.4863 164.56C47.2596 165.067 48.0196 165.667 48.7663 166.36C49.4863 167.08 50.1129 167.813 50.6463 168.56C51.1796 169.28 51.4463 169.867 51.4463 170.32V181.08C51.4463 181.56 51.1796 182.173 50.6463 182.92C50.1129 183.64 49.4863 184.347 48.7663 185.04C48.0196 185.733 47.2596 186.333 46.4863 186.84C45.7396 187.347 45.1263 187.6 44.6463 187.6H35.4063ZM37.3663 168.4C37.1263 168.4 36.8329 168.493 36.4863 168.68C36.1663 168.867 35.8463 169.093 35.5263 169.36C35.2063 169.653 34.9263 169.96 34.6863 170.28C34.4729 170.6 34.3663 170.88 34.3663 171.12V180.04C34.3663 180.307 34.4729 180.6 34.6863 180.92C34.9263 181.24 35.2063 181.533 35.5263 181.8C35.8463 182.093 36.1663 182.333 36.4863 182.52C36.8329 182.707 37.1263 182.8 37.3663 182.8H42.6863C42.9263 182.8 43.2063 182.707 43.5263 182.52C43.8729 182.333 44.2063 182.093 44.5263 181.8C44.8463 181.533 45.1129 181.24 45.3263 180.92C45.5663 180.6 45.6863 180.307 45.6863 180.04V171.12C45.6863 170.88 45.5663 170.6 45.3263 170.28C45.1129 169.96 44.8463 169.653 44.5263 169.36C44.2063 169.093 43.8729 168.867 43.5263 168.68C43.2063 168.493 42.9263 168.4 42.6863 168.4H37.3663ZM60.1928 187.6H55.8728V163.8H71.8728C72.3528 163.8 72.9661 164.053 73.7128 164.56C74.4861 165.067 75.2461 165.667 75.9928 166.36C76.7128 167.08 77.3395 167.813 77.8728 168.56C78.4061 169.28 78.6728 169.867 78.6728 170.32V182.56L77.4728 187.6H72.9128V171.12C72.9128 170.88 72.7928 170.6 72.5528 170.28C72.3395 169.96 72.0728 169.653 71.7528 169.36C71.4328 169.093 71.0995 168.867 70.7528 168.68C70.4328 168.493 70.1528 168.4 69.9128 168.4H61.6328V182.56L60.1928 187.6ZM87.4194 187.6H83.0994V163.8H99.0994C99.5794 163.8 100.193 164.053 100.939 164.56C101.713 165.067 102.473 165.667 103.219 166.36C103.939 167.08 104.566 167.813 105.099 168.56C105.633 169.28 105.899 169.867 105.899 170.32V182.56L104.699 187.6H100.139V171.12C100.139 170.88 100.019 170.6 99.7794 170.28C99.566 169.96 99.2994 169.653 98.9794 169.36C98.6594 169.093 98.326 168.867 97.9794 168.68C97.6594 168.493 97.3794 168.4 97.1394 168.4H88.8594V182.56L87.4194 187.6ZM110.286 169.76C110.286 169.333 110.513 168.787 110.966 168.12C111.419 167.427 111.966 166.76 112.606 166.12C113.219 165.48 113.859 164.933 114.526 164.48C115.219 164.027 115.806 163.8 116.286 163.8H127.126C127.579 163.8 128.139 164.027 128.806 164.48C129.499 164.933 130.166 165.48 130.806 166.12C131.446 166.76 131.993 167.427 132.446 168.12C132.899 168.787 133.126 169.333 133.126 169.76V173C133.126 173.427 132.899 173.987 132.446 174.68C131.993 175.347 131.446 176 130.806 176.64C130.166 177.28 129.499 177.827 128.806 178.28C128.139 178.733 127.579 178.96 127.126 178.96H116.046V180.8C116.046 181.04 116.113 181.28 116.246 181.52C116.406 181.76 116.593 181.973 116.806 182.16C117.019 182.373 117.246 182.547 117.486 182.68C117.753 182.813 118.006 182.88 118.246 182.88H131.846V187.6H116.286C115.806 187.6 115.219 187.373 114.526 186.92C113.859 186.467 113.219 185.92 112.606 185.28C111.966 184.64 111.419 183.987 110.966 183.32C110.513 182.627 110.286 182.067 110.286 181.64V169.76ZM127.366 170.68C127.366 170.44 127.286 170.2 127.126 169.96C126.993 169.72 126.819 169.493 126.606 169.28C126.366 169.093 126.113 168.933 125.846 168.8C125.606 168.667 125.366 168.6 125.126 168.6H118.246C118.006 168.6 117.753 168.667 117.486 168.8C117.246 168.933 117.019 169.093 116.806 169.28C116.593 169.493 116.406 169.72 116.246 169.96C116.113 170.2 116.046 170.44 116.046 170.68V174.24H125.126C125.366 174.24 125.606 174.187 125.846 174.08C126.113 173.947 126.366 173.773 126.606 173.56C126.819 173.373 126.993 173.16 127.126 172.92C127.286 172.68 127.366 172.44 127.366 172.2V170.68ZM156.164 187.6H143.844C143.364 187.6 142.737 187.347 141.964 186.84C141.217 186.333 140.484 185.733 139.764 185.04C139.017 184.347 138.377 183.64 137.844 182.92C137.31 182.173 137.044 181.56 137.044 181.08V170.32C137.044 169.867 137.31 169.28 137.844 168.56C138.377 167.813 139.017 167.08 139.764 166.36C140.484 165.667 141.217 165.067 141.964 164.56C142.737 164.053 143.364 163.8 143.844 163.8H155.964V168.4H145.804C145.564 168.4 145.27 168.493 144.924 168.68C144.604 168.867 144.284 169.093 143.964 169.36C143.644 169.653 143.364 169.96 143.124 170.28C142.91 170.6 142.804 170.88 142.804 171.12V180.04C142.804 180.307 142.91 180.6 143.124 180.92C143.364 181.24 143.644 181.533 143.964 181.8C144.284 182.093 144.604 182.333 144.924 182.52C145.27 182.707 145.564 182.8 145.804 182.8H156.164V187.6ZM168.324 156.2V163.8H174.524V168.48H168.324V180.28C168.324 180.52 168.431 180.8 168.644 181.12C168.884 181.44 169.164 181.733 169.484 182C169.804 182.293 170.124 182.533 170.444 182.72C170.791 182.907 171.084 183 171.324 183H176.284V187.6H169.364C168.884 187.6 168.257 187.347 167.484 186.84C166.737 186.333 166.004 185.733 165.284 185.04C164.537 184.347 163.897 183.627 163.364 182.88C162.831 182.133 162.564 181.533 162.564 181.08V168.48H158.684V163.8H162.564V156.2H168.324ZM180.179 162.44V155.8H185.939V160.04L185.139 162.44H180.179ZM184.499 187.6H180.179V166.44H185.939V182.56L184.499 187.6ZM195.154 187.6H190.834V163.8H206.834C207.314 163.8 207.927 164.053 208.674 164.56C209.447 165.067 210.207 165.667 210.954 166.36C211.674 167.08 212.3 167.813 212.834 168.56C213.367 169.28 213.634 169.867 213.634 170.32V182.56L212.434 187.6H207.874V171.12C207.874 170.88 207.754 170.6 207.514 170.28C207.3 169.96 207.034 169.653 206.714 169.36C206.394 169.093 206.06 168.867 205.714 168.68C205.394 168.493 205.114 168.4 204.874 168.4H196.594V182.56L195.154 187.6ZM218.06 170.32C218.06 169.84 218.327 169.24 218.86 168.52C219.394 167.773 220.034 167.053 220.78 166.36C221.5 165.667 222.234 165.067 222.98 164.56C223.754 164.053 224.38 163.8 224.86 163.8H240.46V191.12C240.46 191.573 240.194 192.173 239.66 192.92C239.127 193.667 238.5 194.387 237.78 195.08C237.034 195.773 236.274 196.373 235.5 196.88C234.754 197.387 234.14 197.64 233.66 197.64H219.82V193.04H231.7C231.94 193.04 232.22 192.947 232.54 192.76C232.887 192.573 233.22 192.347 233.54 192.08C233.86 191.787 234.127 191.48 234.34 191.16C234.58 190.84 234.7 190.56 234.7 190.32V187.6H224.86C224.38 187.6 223.754 187.347 222.98 186.84C222.234 186.333 221.5 185.733 220.78 185.04C220.034 184.347 219.394 183.627 218.86 182.88C218.327 182.133 218.06 181.533 218.06 181.08V170.32ZM223.82 180.28C223.82 180.52 223.927 180.8 224.14 181.12C224.38 181.44 224.66 181.733 224.98 182C225.3 182.293 225.62 182.533 225.94 182.72C226.287 182.907 226.58 183 226.82 183H234.7V168.6H226.82C226.58 168.6 226.287 168.693 225.94 168.88C225.62 169.067 225.3 169.293 224.98 169.56C224.66 169.853 224.38 170.16 224.14 170.48C223.927 170.8 223.82 171.093 223.82 171.36V180.28ZM260.617 187.6V197.64H254.857V163.8H270.857C271.337 163.8 271.951 164.053 272.697 164.56C273.471 165.067 274.231 165.667 274.977 166.36C275.697 167.053 276.324 167.773 276.857 168.52C277.391 169.24 277.657 169.84 277.657 170.32V181.08C277.657 181.533 277.391 182.133 276.857 182.88C276.324 183.627 275.697 184.347 274.977 185.04C274.231 185.733 273.471 186.333 272.697 186.84C271.951 187.347 271.337 187.6 270.857 187.6H260.617ZM260.617 168.6V183H268.897C269.137 183 269.417 182.907 269.737 182.72C270.084 182.533 270.417 182.293 270.737 182C271.057 181.733 271.324 181.44 271.537 181.12C271.777 180.8 271.897 180.52 271.897 180.28V171.36C271.897 171.093 271.777 170.8 271.537 170.48C271.324 170.16 271.057 169.853 270.737 169.56C270.417 169.293 270.084 169.067 269.737 168.88C269.417 168.693 269.137 168.6 268.897 168.6H260.617ZM282.044 169.76C282.044 169.333 282.27 168.787 282.724 168.12C283.177 167.427 283.724 166.76 284.364 166.12C284.977 165.48 285.617 164.933 286.284 164.48C286.977 164.027 287.564 163.8 288.044 163.8H298.884C299.337 163.8 299.897 164.027 300.564 164.48C301.257 164.933 301.924 165.48 302.564 166.12C303.204 166.76 303.75 167.427 304.204 168.12C304.657 168.787 304.884 169.333 304.884 169.76V173C304.884 173.427 304.657 173.987 304.204 174.68C303.75 175.347 303.204 176 302.564 176.64C301.924 177.28 301.257 177.827 300.564 178.28C299.897 178.733 299.337 178.96 298.884 178.96H287.804V180.8C287.804 181.04 287.87 181.28 288.004 181.52C288.164 181.76 288.35 181.973 288.564 182.16C288.777 182.373 289.004 182.547 289.244 182.68C289.51 182.813 289.764 182.88 290.004 182.88H303.604V187.6H288.044C287.564 187.6 286.977 187.373 286.284 186.92C285.617 186.467 284.977 185.92 284.364 185.28C283.724 184.64 283.177 183.987 282.724 183.32C282.27 182.627 282.044 182.067 282.044 181.64V169.76ZM299.124 170.68C299.124 170.44 299.044 170.2 298.884 169.96C298.75 169.72 298.577 169.493 298.364 169.28C298.124 169.093 297.87 168.933 297.604 168.8C297.364 168.667 297.124 168.6 296.884 168.6H290.004C289.764 168.6 289.51 168.667 289.244 168.8C289.004 168.933 288.777 169.093 288.564 169.28C288.35 169.493 288.164 169.72 288.004 169.96C287.87 170.2 287.804 170.44 287.804 170.68V174.24H296.884C297.124 174.24 297.364 174.187 297.604 174.08C297.87 173.947 298.124 173.773 298.364 173.56C298.577 173.373 298.75 173.16 298.884 172.92C299.044 172.68 299.124 172.44 299.124 172.2V170.68ZM315.602 187.6C315.122 187.6 314.495 187.347 313.722 186.84C312.975 186.333 312.242 185.733 311.522 185.04C310.775 184.347 310.135 183.64 309.602 182.92C309.068 182.173 308.802 181.56 308.802 181.08V170.32C308.802 169.867 309.068 169.28 309.602 168.56C310.135 167.813 310.775 167.08 311.522 166.36C312.242 165.667 312.975 165.067 313.722 164.56C314.495 164.053 315.122 163.8 315.602 163.8H324.842C325.322 163.8 325.935 164.053 326.682 164.56C327.455 165.067 328.215 165.667 328.962 166.36C329.682 167.08 330.308 167.813 330.842 168.56C331.375 169.28 331.642 169.867 331.642 170.32V181.08C331.642 181.56 331.375 182.173 330.842 182.92C330.308 183.64 329.682 184.347 328.962 185.04C328.215 185.733 327.455 186.333 326.682 186.84C325.935 187.347 325.322 187.6 324.842 187.6H315.602ZM317.562 168.4C317.322 168.4 317.028 168.493 316.682 168.68C316.362 168.867 316.042 169.093 315.722 169.36C315.402 169.653 315.122 169.96 314.882 170.28C314.668 170.6 314.562 170.88 314.562 171.12V180.04C314.562 180.307 314.668 180.6 314.882 180.92C315.122 181.24 315.402 181.533 315.722 181.8C316.042 182.093 316.362 182.333 316.682 182.52C317.028 182.707 317.322 182.8 317.562 182.8H322.882C323.122 182.8 323.402 182.707 323.722 182.52C324.068 182.333 324.402 182.093 324.722 181.8C325.042 181.533 325.308 181.24 325.522 180.92C325.762 180.6 325.882 180.307 325.882 180.04V171.12C325.882 170.88 325.762 170.6 325.522 170.28C325.308 169.96 325.042 169.653 324.722 169.36C324.402 169.093 324.068 168.867 323.722 168.68C323.402 168.493 323.122 168.4 322.882 168.4H317.562ZM341.828 187.6V197.64H336.068V163.8H352.068C352.548 163.8 353.161 164.053 353.908 164.56C354.681 165.067 355.441 165.667 356.188 166.36C356.908 167.053 357.535 167.773 358.068 168.52C358.601 169.24 358.868 169.84 358.868 170.32V181.08C358.868 181.533 358.601 182.133 358.068 182.88C357.535 183.627 356.908 184.347 356.188 185.04C355.441 185.733 354.681 186.333 353.908 186.84C353.161 187.347 352.548 187.6 352.068 187.6H341.828ZM341.828 168.6V183H350.108C350.348 183 350.628 182.907 350.948 182.72C351.295 182.533 351.628 182.293 351.948 182C352.268 181.733 352.535 181.44 352.748 181.12C352.988 180.8 353.108 180.52 353.108 180.28V171.36C353.108 171.093 352.988 170.8 352.748 170.48C352.535 170.16 352.268 169.853 351.948 169.56C351.628 169.293 351.295 169.067 350.948 168.88C350.628 168.693 350.348 168.6 350.108 168.6H341.828ZM368.055 187.6H363.735V155.8H369.495V182.56L368.055 187.6ZM374.348 169.76C374.348 169.333 374.575 168.787 375.028 168.12C375.482 167.427 376.028 166.76 376.668 166.12C377.282 165.48 377.922 164.933 378.588 164.48C379.282 164.027 379.868 163.8 380.348 163.8H391.188C391.642 163.8 392.202 164.027 392.868 164.48C393.562 164.933 394.228 165.48 394.868 166.12C395.508 166.76 396.055 167.427 396.508 168.12C396.962 168.787 397.188 169.333 397.188 169.76V173C397.188 173.427 396.962 173.987 396.508 174.68C396.055 175.347 395.508 176 394.868 176.64C394.228 177.28 393.562 177.827 392.868 178.28C392.202 178.733 391.642 178.96 391.188 178.96H380.108V180.8C380.108 181.04 380.175 181.28 380.308 181.52C380.468 181.76 380.655 181.973 380.868 182.16C381.082 182.373 381.308 182.547 381.548 182.68C381.815 182.813 382.068 182.88 382.308 182.88H395.908V187.6H380.348C379.868 187.6 379.282 187.373 378.588 186.92C377.922 186.467 377.282 185.92 376.668 185.28C376.028 184.64 375.482 183.987 375.028 183.32C374.575 182.627 374.348 182.067 374.348 181.64V169.76ZM391.428 170.68C391.428 170.44 391.348 170.2 391.188 169.96C391.055 169.72 390.882 169.493 390.668 169.28C390.428 169.093 390.175 168.933 389.908 168.8C389.668 168.667 389.428 168.6 389.188 168.6H382.308C382.068 168.6 381.815 168.667 381.548 168.8C381.308 168.933 381.082 169.093 380.868 169.28C380.655 169.493 380.468 169.72 380.308 169.96C380.175 170.2 380.108 170.44 380.108 170.68V174.24H389.188C389.428 174.24 389.668 174.187 389.908 174.08C390.175 173.947 390.428 173.773 390.668 173.56C390.882 173.373 391.055 173.16 391.188 172.92C391.348 172.68 391.428 172.44 391.428 172.2V170.68ZM400.906 192.12C401.546 191.773 402.093 191.387 402.546 190.96C403 190.533 403.346 190.027 403.586 189.44C402.68 189.28 401.946 188.893 401.386 188.28C400.853 187.667 400.586 186.933 400.586 186.08C400.586 185.067 400.933 184.187 401.626 183.44C402.346 182.693 403.28 182.32 404.426 182.32C405.573 182.32 406.48 182.693 407.146 183.44C407.84 184.187 408.186 185.067 408.186 186.08V186.36C408.186 187.24 408.053 188.08 407.786 188.88C407.52 189.68 407.146 190.413 406.666 191.08C406.16 191.72 405.56 192.28 404.866 192.76C404.173 193.24 403.413 193.587 402.586 193.8L400.906 192.12ZM422.523 156.6H440.283C440.576 156.6 440.949 156.733 441.403 157C441.856 157.24 442.336 157.56 442.843 157.96C443.349 158.387 443.856 158.853 444.363 159.36C444.869 159.867 445.336 160.373 445.763 160.88C446.163 161.413 446.483 161.92 446.723 162.4C446.989 162.853 447.123 163.227 447.123 163.52V180.64C447.123 181.12 446.843 181.747 446.283 182.52C445.749 183.293 445.123 184.053 444.403 184.8C443.656 185.573 442.896 186.227 442.123 186.76C441.349 187.32 440.736 187.6 440.283 187.6H422.523V156.6ZM428.283 161.4V182.8H438.563C438.776 182.773 439.043 182.653 439.363 182.44C439.683 182.2 439.989 181.92 440.283 181.6C440.576 181.28 440.829 180.96 441.043 180.64C441.256 180.293 441.363 180.013 441.363 179.8V164.36C441.363 164.147 441.256 163.88 441.043 163.56C440.829 163.213 440.576 162.88 440.283 162.56C439.989 162.267 439.683 162.013 439.363 161.8C439.043 161.56 438.776 161.427 438.563 161.4H428.283ZM451.966 169.76C451.966 169.333 452.192 168.787 452.646 168.12C453.099 167.427 453.646 166.76 454.286 166.12C454.899 165.48 455.539 164.933 456.206 164.48C456.899 164.027 457.486 163.8 457.966 163.8H468.806C469.259 163.8 469.819 164.027 470.486 164.48C471.179 164.933 471.846 165.48 472.486 166.12C473.126 166.76 473.672 167.427 474.126 168.12C474.579 168.787 474.806 169.333 474.806 169.76V173C474.806 173.427 474.579 173.987 474.126 174.68C473.672 175.347 473.126 176 472.486 176.64C471.846 177.28 471.179 177.827 470.486 178.28C469.819 178.733 469.259 178.96 468.806 178.96H457.726V180.8C457.726 181.04 457.792 181.28 457.926 181.52C458.086 181.76 458.272 181.973 458.486 182.16C458.699 182.373 458.926 182.547 459.166 182.68C459.432 182.813 459.686 182.88 459.926 182.88H473.526V187.6H457.966C457.486 187.6 456.899 187.373 456.206 186.92C455.539 186.467 454.899 185.92 454.286 185.28C453.646 184.64 453.099 183.987 452.646 183.32C452.192 182.627 451.966 182.067 451.966 181.64V169.76ZM469.046 170.68C469.046 170.44 468.966 170.2 468.806 169.96C468.672 169.72 468.499 169.493 468.286 169.28C468.046 169.093 467.792 168.933 467.526 168.8C467.286 168.667 467.046 168.6 466.806 168.6H459.926C459.686 168.6 459.432 168.667 459.166 168.8C458.926 168.933 458.699 169.093 458.486 169.28C458.272 169.493 458.086 169.72 457.926 169.96C457.792 170.2 457.726 170.44 457.726 170.68V174.24H466.806C467.046 174.24 467.286 174.187 467.526 174.08C467.792 173.947 468.046 173.773 468.286 173.56C468.499 173.373 468.672 173.16 468.806 172.92C468.966 172.68 469.046 172.44 469.046 172.2V170.68ZM483.523 187.6H479.203V155.8H484.963V182.56L483.523 187.6ZM490.257 162.44V155.8H496.017V160.04L495.217 162.44H490.257ZM494.577 187.6H490.257V166.44H496.017V182.56L494.577 187.6ZM508.472 187.6C507.965 187.6 507.379 187.373 506.712 186.92C506.045 186.467 505.405 185.933 504.792 185.32C504.179 184.68 503.645 184.027 503.192 183.36C502.739 182.693 502.485 182.147 502.432 181.72L499.752 163.8H505.632L507.512 176.64C507.832 178.8 508.205 180.373 508.632 181.36C509.059 182.32 509.512 182.8 509.992 182.8H512.832C513.312 182.8 513.765 182.32 514.192 181.36C514.619 180.373 514.992 178.8 515.312 176.64L517.192 163.8H523.072L520.392 181.72C520.339 182.147 520.085 182.693 519.632 183.36C519.179 184.027 518.645 184.68 518.032 185.32C517.419 185.933 516.779 186.467 516.112 186.92C515.445 187.373 514.859 187.6 514.352 187.6H508.472ZM526.302 169.76C526.302 169.333 526.528 168.787 526.982 168.12C527.435 167.427 527.982 166.76 528.622 166.12C529.235 165.48 529.875 164.933 530.542 164.48C531.235 164.027 531.822 163.8 532.302 163.8H543.142C543.595 163.8 544.155 164.027 544.822 164.48C545.515 164.933 546.182 165.48 546.822 166.12C547.462 166.76 548.008 167.427 548.462 168.12C548.915 168.787 549.142 169.333 549.142 169.76V173C549.142 173.427 548.915 173.987 548.462 174.68C548.008 175.347 547.462 176 546.822 176.64C546.182 177.28 545.515 177.827 544.822 178.28C544.155 178.733 543.595 178.96 543.142 178.96H532.062V180.8C532.062 181.04 532.128 181.28 532.262 181.52C532.422 181.76 532.608 181.973 532.822 182.16C533.035 182.373 533.262 182.547 533.502 182.68C533.768 182.813 534.022 182.88 534.262 182.88H547.862V187.6H532.302C531.822 187.6 531.235 187.373 530.542 186.92C529.875 186.467 529.235 185.92 528.622 185.28C527.982 184.64 527.435 183.987 526.982 183.32C526.528 182.627 526.302 182.067 526.302 181.64V169.76ZM543.382 170.68C543.382 170.44 543.302 170.2 543.142 169.96C543.008 169.72 542.835 169.493 542.622 169.28C542.382 169.093 542.128 168.933 541.862 168.8C541.622 168.667 541.382 168.6 541.142 168.6H534.262C534.022 168.6 533.768 168.667 533.502 168.8C533.262 168.933 533.035 169.093 532.822 169.28C532.608 169.493 532.422 169.72 532.262 169.96C532.128 170.2 532.062 170.44 532.062 170.68V174.24H541.142C541.382 174.24 541.622 174.187 541.862 174.08C542.128 173.947 542.382 173.773 542.622 173.56C542.835 173.373 543.008 173.16 543.142 172.92C543.302 172.68 543.382 172.44 543.382 172.2V170.68ZM557.419 187.6H553.099V163.8H558.859V165.8L561.899 163.8H570.659V168.6H562.299L558.859 170.96V182.56L557.419 187.6ZM574.202 162.44V155.8H579.963V160.04L579.163 162.44H574.202ZM578.523 187.6H574.202V166.44H579.963V182.56L578.523 187.6ZM589.177 187.6H584.857V163.8H600.857C601.337 163.8 601.951 164.053 602.697 164.56C603.471 165.067 604.231 165.667 604.977 166.36C605.697 167.08 606.324 167.813 606.857 168.56C607.391 169.28 607.657 169.867 607.657 170.32V182.56L606.457 187.6H601.897V171.12C601.897 170.88 601.777 170.6 601.537 170.28C601.324 169.96 601.057 169.653 600.737 169.36C600.417 169.093 600.084 168.867 599.737 168.68C599.417 168.493 599.137 168.4 598.897 168.4H590.617V182.56L589.177 187.6ZM612.084 170.32C612.084 169.84 612.35 169.24 612.884 168.52C613.417 167.773 614.057 167.053 614.804 166.36C615.524 165.667 616.257 165.067 617.004 164.56C617.777 164.053 618.404 163.8 618.884 163.8H634.484V191.12C634.484 191.573 634.217 192.173 633.684 192.92C633.15 193.667 632.524 194.387 631.804 195.08C631.057 195.773 630.297 196.373 629.524 196.88C628.777 197.387 628.164 197.64 627.684 197.64H613.844V193.04H625.724C625.964 193.04 626.244 192.947 626.564 192.76C626.91 192.573 627.244 192.347 627.564 192.08C627.884 191.787 628.15 191.48 628.364 191.16C628.604 190.84 628.724 190.56 628.724 190.32V187.6H618.884C618.404 187.6 617.777 187.347 617.004 186.84C616.257 186.333 615.524 185.733 614.804 185.04C614.057 184.347 613.417 183.627 612.884 182.88C612.35 182.133 612.084 181.533 612.084 181.08V170.32ZM617.844 180.28C617.844 180.52 617.95 180.8 618.164 181.12C618.404 181.44 618.684 181.733 619.004 182C619.324 182.293 619.644 182.533 619.964 182.72C620.31 182.907 620.604 183 620.844 183H628.724V168.6H620.844C620.604 168.6 620.31 168.693 619.964 168.88C619.644 169.067 619.324 169.293 619.004 169.56C618.684 169.853 618.404 170.16 618.164 170.48C617.95 170.8 617.844 171.093 617.844 171.36V180.28ZM676.041 156.6L671.161 183.08C671.107 183.4 670.881 183.827 670.481 184.36C670.107 184.867 669.641 185.36 669.081 185.84C668.521 186.32 667.894 186.733 667.201 187.08C666.507 187.427 665.814 187.6 665.121 187.6H658.881C658.134 187.6 657.414 187.413 656.721 187.04C656.027 186.693 655.401 186.267 654.841 185.76C654.281 185.253 653.814 184.76 653.441 184.28C653.094 183.773 652.894 183.373 652.841 183.08L648.081 156.6H654.041L658.321 180.28C658.507 181.213 658.867 181.867 659.401 182.24C659.934 182.613 660.561 182.8 661.281 182.8H662.721C663.494 182.8 664.134 182.613 664.641 182.24C665.174 181.867 665.534 181.213 665.721 180.28L670.081 156.6H676.041ZM679.104 178.32C679.104 177.893 679.33 177.347 679.784 176.68C680.237 175.987 680.784 175.32 681.424 174.68C682.064 174.04 682.717 173.493 683.384 173.04C684.077 172.587 684.65 172.36 685.104 172.36H696.624V170.6C696.624 170.36 696.544 170.12 696.384 169.88C696.25 169.64 696.077 169.413 695.864 169.2C695.65 169.013 695.41 168.853 695.144 168.72C694.904 168.587 694.664 168.52 694.424 168.52H680.824V163.8H696.384C696.864 163.8 697.437 164.027 698.104 164.48C698.797 164.933 699.464 165.48 700.104 166.12C700.717 166.76 701.25 167.427 701.704 168.12C702.157 168.787 702.384 169.333 702.384 169.76V181.64C702.384 182.093 702.157 182.653 701.704 183.32C701.25 183.987 700.717 184.64 700.104 185.28C699.464 185.92 698.797 186.467 698.104 186.92C697.437 187.373 696.864 187.6 696.384 187.6H685.104C684.65 187.6 684.077 187.373 683.384 186.92C682.717 186.467 682.064 185.92 681.424 185.28C680.784 184.64 680.237 183.987 679.784 183.32C679.33 182.653 679.104 182.093 679.104 181.64V178.32ZM694.424 182.8C694.664 182.8 694.904 182.747 695.144 182.64C695.41 182.533 695.65 182.373 695.864 182.16C696.077 181.973 696.25 181.76 696.384 181.52C696.544 181.253 696.624 181 696.624 180.76V177.08H687.104C686.864 177.08 686.61 177.147 686.344 177.28C686.104 177.413 685.877 177.573 685.664 177.76C685.424 177.973 685.224 178.2 685.064 178.44C684.93 178.68 684.864 178.92 684.864 179.16V180.76C684.864 181 684.93 181.253 685.064 181.52C685.224 181.76 685.424 181.973 685.664 182.16C685.877 182.373 686.104 182.533 686.344 182.64C686.61 182.747 686.864 182.8 687.104 182.8H694.424ZM711.57 187.6H707.25V155.8H713.01V182.56L711.57 187.6ZM740.704 163.8V187.6H724.704C724.224 187.6 723.597 187.347 722.824 186.84C722.077 186.333 721.344 185.733 720.624 185.04C719.877 184.347 719.237 183.627 718.704 182.88C718.171 182.133 717.904 181.533 717.904 181.08V163.8H723.664V180.28C723.664 180.52 723.771 180.8 723.984 181.12C724.224 181.44 724.504 181.733 724.824 182C725.144 182.293 725.464 182.533 725.784 182.72C726.131 182.907 726.424 183 726.664 183H734.944V163.8H740.704ZM745.091 169.76C745.091 169.333 745.317 168.787 745.771 168.12C746.224 167.427 746.771 166.76 747.411 166.12C748.024 165.48 748.664 164.933 749.331 164.48C750.024 164.027 750.611 163.8 751.091 163.8H761.931C762.384 163.8 762.944 164.027 763.611 164.48C764.304 164.933 764.971 165.48 765.611 166.12C766.251 166.76 766.797 167.427 767.251 168.12C767.704 168.787 767.931 169.333 767.931 169.76V173C767.931 173.427 767.704 173.987 767.251 174.68C766.797 175.347 766.251 176 765.611 176.64C764.971 177.28 764.304 177.827 763.611 178.28C762.944 178.733 762.384 178.96 761.931 178.96H750.851V180.8C750.851 181.04 750.917 181.28 751.051 181.52C751.211 181.76 751.397 181.973 751.611 182.16C751.824 182.373 752.051 182.547 752.291 182.68C752.557 182.813 752.811 182.88 753.051 182.88H766.651V187.6H751.091C750.611 187.6 750.024 187.373 749.331 186.92C748.664 186.467 748.024 185.92 747.411 185.28C746.771 184.64 746.224 183.987 745.771 183.32C745.317 182.627 745.091 182.067 745.091 181.64V169.76ZM762.171 170.68C762.171 170.44 762.091 170.2 761.931 169.96C761.797 169.72 761.624 169.493 761.411 169.28C761.171 169.093 760.917 168.933 760.651 168.8C760.411 168.667 760.171 168.6 759.931 168.6H753.051C752.811 168.6 752.557 168.667 752.291 168.8C752.051 168.933 751.824 169.093 751.611 169.28C751.397 169.493 751.211 169.72 751.051 169.96C750.917 170.2 750.851 170.44 750.851 170.68V174.24H759.931C760.171 174.24 760.411 174.187 760.651 174.08C760.917 173.947 761.171 173.773 761.411 173.56C761.624 173.373 761.797 173.16 761.931 172.92C762.091 172.68 762.171 172.44 762.171 172.2V170.68ZM771.208 186.08C771.208 185.573 771.302 185.093 771.488 184.64C771.702 184.16 771.982 183.747 772.328 183.4C772.675 183.053 773.075 182.787 773.528 182.6C773.982 182.387 774.475 182.28 775.008 182.28C775.515 182.28 775.995 182.387 776.448 182.6C776.928 182.787 777.342 183.053 777.688 183.4C778.035 183.747 778.302 184.16 778.488 184.64C778.702 185.093 778.808 185.573 778.808 186.08C778.808 186.613 778.702 187.107 778.488 187.56C778.302 188.013 778.035 188.413 777.688 188.76C777.342 189.107 776.928 189.373 776.448 189.56C775.995 189.773 775.515 189.88 775.008 189.88C774.475 189.88 773.982 189.773 773.528 189.56C773.075 189.373 772.675 189.107 772.328 188.76C771.982 188.413 771.702 188.013 771.488 187.56C771.302 187.107 771.208 186.613 771.208 186.08Z" fill="#797979"/>
<defs>
<clipPath id="clip0_697_63">
<rect width="1346" height="121" fill="white"/>
</clipPath>
</defs>
</svg>
